<svg width="683" height="704" viewBox="0 0 683 704" fill="none" xmlns="http://www.w3.org/2000/svg">
<path d="M447.5 0C200.516 0 0 200.516 0 447.5C0 694.484 200.516 895 447.5 895C694.037 895 894.203 695.2 894.928 448.825C894.974 448.384 894.998 447.942 895 447.5C895 447.103 894.982 446.705 894.946 446.31C894.302 199.871 694.09 0 447.5 0ZM447.5 26.85C462.634 26.85 477.572 27.6913 492.304 29.2486C492.411 31.1818 488.697 32.5154 477.429 32.0768C471.611 37.1604 472.864 38.0106 450.042 38.7714C445.459 58.6941 392.198 47.2739 426.978 37.0261C477.509 25.2748 410.778 24.8452 399.358 44.5084C431.775 58.4435 373.457 46.9696 362.878 57.1278C356.452 50.5227 342.275 45.108 326.711 44.5084C365.902 32.7856 406.593 26.837 447.5 26.85ZM768.966 176.172C780.963 190.402 792.005 205.411 802.018 221.101C802.439 224.412 802.555 227.697 802.144 230.946C807.899 248.291 796.872 231.751 796.586 229.55C782.284 214.746 776.851 195.325 768.966 176.172ZM133.319 177.917C141.58 176.754 97.1433 213.61 115.249 209.752C132.639 170.283 141.258 216.984 115.634 219.848C94.512 271.999 142.914 192.998 143.343 221.351C130.41 248.998 145.169 266.468 170.068 253.643C193.938 244.138 174.82 268.912 188.559 268.5C207.175 242.903 201.053 269.735 185.712 288.602C161.476 299.592 138.474 281.039 122.293 266.978C104.572 303.432 90.4219 252.068 102.316 237.891C118.301 233.147 102.961 223.213 96.6152 215.409C99.2018 211.515 101.878 207.685 104.581 203.872C107.391 201.787 108.304 200.167 108.223 198.771C111.571 194.206 115.043 189.731 118.57 185.31C126.786 180.495 131.502 178.177 133.319 177.917ZM218.998 178.06C218.004 192.47 259.004 187.843 256.498 213.556C242.652 223.625 231.778 206.843 218.998 205.483C180.414 218.836 195.065 188.505 218.998 178.06ZM330.971 180.906C334.265 181.023 336.565 182.643 336.905 186.205C305.669 195.414 333.987 233.398 331.499 257.715C309.366 265.618 281.674 246 310.959 228.27C283.796 208.087 316.705 180.396 330.971 180.906ZM759.819 214.523C773.173 213.064 787.895 235.618 800.676 258.977C794.769 217.736 835.733 315.264 818.907 259.335C819.784 257.447 820.375 255.478 820.76 253.464C851.968 313.377 868.227 379.947 868.15 447.5C868.15 466.143 866.807 484.463 864.463 502.453C859.334 503.223 859.075 550.264 850.456 538.307C843.018 544.625 869.949 488.464 850.25 523.387C819.31 555.518 836.521 500.019 848.138 484.544C856.685 489.198 864.087 479.666 859.218 457.291C855.727 420.954 838.937 409.471 830.399 376.983C816.204 383.919 838.857 431.309 830.846 452.986C824.313 481.268 811.219 548.447 784.7 543.677C770.237 510.222 787.833 574.465 780.521 586.485C786.15 594.817 828.296 603.615 822.648 567.886C838.346 523.915 829.45 562.337 828.17 586.798C849.453 603.266 792.37 626.214 812.23 610.05C797.499 604.268 785.362 620.656 772.779 618.964C761.905 628.442 761.036 611.16 765.798 605.485C799.029 590.145 750.574 595.622 758.513 579.709C762.629 544.948 734.956 521.749 721.459 499.312C715.356 456.038 756.767 487.847 754.915 504.798C799.307 484.938 781.541 426.369 754.583 399.949C772.913 361.813 762.209 404.495 776.063 409.991C779.402 385.217 787.367 371.917 803.961 350.625C814.79 312.346 800.685 273.27 773.441 245.964C788.209 226.444 741.669 220.036 757.17 215.131C758.047 214.818 758.933 214.621 759.819 214.523ZM284.485 327.096C280.582 350.5 334.462 357.123 315.031 371.631C309.867 373.492 304.381 375.614 298.76 374.235C301.678 361.401 257.948 326.55 284.476 327.096H284.485ZM172.449 333.45C176.055 332.698 181.551 340.843 179.913 355.082C186.178 390.972 199.048 423.058 204.642 457.238C205.179 472.811 197.768 458.849 195.396 454.391C174.946 426.512 178.696 387.768 171.724 352.737C167.992 340.028 169.638 334.05 172.44 333.459L172.449 333.45ZM335.258 369.921C358.725 381.717 409.436 366.109 433.619 389.62C449.639 371.514 431.13 417.974 458.285 420.543C487.838 409.31 472.399 438.657 483.023 458.401C498.479 486.146 502.086 528.668 529.795 545.341C555.965 509.702 540.884 584.399 570.124 559.518C576.129 529.339 546.55 506.955 555.535 474.225C572.29 454.606 598.245 436.017 612.368 411.226C635.656 387.24 657.011 405.39 669.585 428.83C667.921 452.056 679.305 459.976 698.556 446.927C708.58 477.536 696.919 517.632 725.192 540.213C748.023 592.812 695.513 518.375 685.651 550.264C707.175 570.67 701.313 590.861 716.143 612.082C730.248 609.629 745.195 638.967 766.487 637.795C785.783 631.36 813.206 632.371 831.043 620.315C819.447 646.043 805.285 670.534 788.772 693.419C775.598 705.332 765.225 719.365 755.541 733.954C678.759 816.491 569.238 868.15 447.5 868.15C353.25 868.284 261.71 836.625 187.681 778.292C184.773 762.182 196.542 764.965 190.608 750.717C161.431 722.175 226.945 727.483 203.084 694.135C194.385 671.876 180.548 644.713 187.18 622.025C201.277 599.632 226.256 588.597 245.445 569.48C257.832 545.78 282.319 523.557 277.432 496.743C260.731 494.022 251.361 499.482 232.172 500.207C184.889 489.073 249.535 481.984 262.378 472.077C292.289 463.512 326.818 452.861 345.676 427.175C373.448 410.026 357.15 383.346 335.258 369.921ZM839.116 446.82C843.645 448.923 847.619 480.409 838.418 493.226C828.958 509.031 824.08 471.209 833.782 466.662C834.883 450.964 837.058 445.862 839.116 446.82ZM848.621 553.745C849.498 553.584 850.671 555.428 852.416 560.306C852.613 560.019 852.747 559.948 852.944 559.679C849.995 570.494 846.612 581.186 842.804 591.729C837.281 595.819 832.18 597.824 834.382 586.297C846.894 592.911 844.835 554.461 848.621 553.745ZM266.039 705.949C262.691 706.352 258.968 709.377 255.057 715.982C219.866 719.186 233.711 759.837 249.132 779.241C260.499 795.172 279.723 788.432 276.295 768.125C288.226 751.54 280.538 704.213 266.039 705.949Z" fill="#3E9EC7" fill-opacity="0.17"/>
</svg>
