<svg width="45" height="45" viewBox="0 0 45 45" fill="none" xmlns="http://www.w3.org/2000/svg">
<path d="M22.5 0C10.0818 0 0 10.0818 0 22.5C0 34.9182 10.0818 45 22.5 45C34.8957 45 44.9599 34.9542 44.9964 22.5666C44.9987 22.5445 44.9999 22.5222 45 22.5C45 22.48 44.9991 22.4601 44.9973 22.4401C44.9649 10.0494 34.8984 0 22.5 0ZM22.5 1.35C23.261 1.35 24.012 1.3923 24.7527 1.4706C24.7581 1.5678 24.5714 1.63485 24.0048 1.6128C23.7123 1.8684 23.7753 1.91115 22.6278 1.9494C22.3974 2.9511 19.7194 2.3769 21.4681 1.86165C24.0089 1.2708 20.6536 1.2492 20.0794 2.23785C21.7093 2.9385 18.7771 2.3616 18.2452 2.87235C17.9221 2.54025 17.2094 2.268 16.4268 2.23785C18.3973 1.64844 20.4432 1.34935 22.5 1.35ZM38.6631 8.8578C39.2663 9.57329 39.8215 10.3279 40.3249 11.1168C40.3461 11.2833 40.3519 11.4485 40.3312 11.6118C40.6206 12.4839 40.0662 11.6523 40.0518 11.5416C39.3327 10.7973 39.0595 9.8208 38.6631 8.8578ZM6.7032 8.94555C7.11855 8.88705 4.8843 10.7402 5.79465 10.5462C6.669 8.5617 7.10235 10.9098 5.814 11.0538C4.752 13.6759 7.1856 9.7038 7.2072 11.1294C6.55695 12.5195 7.299 13.3979 8.5509 12.753C9.75105 12.2751 8.78985 13.5207 9.4806 13.5C10.4166 12.213 10.1088 13.5621 9.3375 14.5107C8.1189 15.0633 6.9624 14.1304 6.1488 13.4235C5.2578 15.2563 4.54635 12.6738 5.1444 11.961C5.9481 11.7225 5.1768 11.223 4.85775 10.8306C4.9878 10.6349 5.12235 10.4422 5.25825 10.2505C5.39955 10.1457 5.44545 10.0642 5.4414 9.99405C5.6097 9.76455 5.7843 9.53955 5.9616 9.31725C6.3747 9.07515 6.61185 8.9586 6.7032 8.94555ZM11.011 8.95275C10.9611 9.67725 13.0225 9.4446 12.8966 10.7374C12.2004 11.2437 11.6536 10.4 11.011 10.3315C9.0711 11.0029 9.80775 9.4779 11.011 8.95275ZM16.641 9.09585C16.8066 9.1017 16.9223 9.18315 16.9394 9.36225C15.3689 9.8253 16.7927 11.7351 16.6676 12.9577C15.5547 13.3551 14.1624 12.3687 15.6348 11.4772C14.269 10.4625 15.9237 9.0702 16.641 9.09585ZM38.2032 10.786C38.8746 10.7127 39.6148 11.8467 40.2575 13.0212C39.9604 10.9476 42.0201 15.8512 41.1741 13.0392C41.2182 12.9442 41.2479 12.8452 41.2673 12.744C42.8364 15.7564 43.6538 19.1035 43.65 22.5C43.65 23.4373 43.5825 24.3585 43.4646 25.263C43.2067 25.3017 43.1937 27.6669 42.7603 27.0657C42.3864 27.3834 43.7404 24.5596 42.75 26.3155C41.1943 27.931 42.0597 25.1406 42.6438 24.3625C43.0735 24.5965 43.4457 24.1173 43.2009 22.9923C43.0254 21.1653 42.1812 20.5879 41.7519 18.9544C41.0382 19.3032 42.1772 21.6859 41.7744 22.7758C41.4459 24.1978 40.7876 27.5755 39.4542 27.3357C38.727 25.6536 39.6117 28.8837 39.244 29.488C39.5271 29.907 41.6461 30.3493 41.3622 28.5529C42.1515 26.3421 41.7042 28.274 41.6398 29.5038C42.7099 30.3318 39.8398 31.4856 40.8384 30.6729C40.0977 30.3822 39.4875 31.2061 38.8548 31.1211C38.308 31.5976 38.2644 30.7287 38.5038 30.4434C40.1747 29.6721 37.7383 29.9475 38.1375 29.1474C38.3445 27.3996 36.9531 26.2332 36.2745 25.105C35.9676 22.9293 38.0497 24.5286 37.9566 25.3809C40.1886 24.3823 39.2953 21.4375 37.9399 20.1091C38.8615 18.1917 38.3233 20.3377 39.0199 20.614C39.1878 19.3684 39.5883 18.6997 40.4226 17.6292C40.9671 15.7045 40.2579 13.7399 38.8881 12.3669C39.6306 11.3854 37.2906 11.0632 38.07 10.8167C38.1141 10.8009 38.1586 10.791 38.2032 10.786ZM14.3037 16.4461C14.1075 17.6229 16.8165 17.9559 15.8396 18.6853C15.5799 18.7789 15.304 18.8856 15.0215 18.8163C15.1681 18.171 12.9694 16.4187 14.3032 16.4461H14.3037ZM8.6706 16.7656C8.85195 16.7278 9.12825 17.1374 9.0459 17.8533C9.3609 19.6578 10.008 21.271 10.2892 22.9896C10.3162 23.7726 9.94365 23.0706 9.8244 22.8465C8.79615 21.4447 8.9847 19.4967 8.63415 17.7354C8.4465 17.0964 8.5293 16.7958 8.67015 16.7661L8.6706 16.7656ZM16.8566 18.5994C18.0364 19.1925 20.5861 18.4077 21.802 19.5898C22.6075 18.6795 21.677 21.0154 23.0422 21.1446C24.5282 20.5798 23.7519 22.0554 24.2861 23.0481C25.0632 24.4431 25.2445 26.581 26.6377 27.4194C27.9535 25.6275 27.1953 29.3832 28.6654 28.1322C28.9674 26.6148 27.4801 25.4893 27.9319 23.8437C28.7743 22.8573 30.0793 21.9226 30.7894 20.6761C31.9603 19.4701 33.034 20.3827 33.6663 21.5613C33.5826 22.729 34.155 23.1273 35.123 22.4712C35.6269 24.0102 35.0406 26.0262 36.4622 27.1616C37.6101 29.8062 34.9699 26.0635 34.474 27.6669C35.5563 28.6929 35.2615 29.7081 36.0072 30.775C36.7164 30.6517 37.4679 32.1269 38.5384 32.0679C39.5086 31.7444 40.8874 31.7952 41.7843 31.189C41.2012 32.4826 40.4892 33.714 39.6589 34.8646C38.9965 35.4636 38.475 36.1692 37.9881 36.9027C34.1275 41.0526 28.6209 43.65 22.5 43.65C17.7612 43.6567 13.1586 42.0649 9.4365 39.132C9.29025 38.322 9.882 38.4619 9.58365 37.7455C8.11665 36.3105 11.4106 36.5773 10.2109 34.9007C9.77355 33.7815 9.07785 32.4157 9.4113 31.275C10.12 30.1491 11.376 29.5942 12.3408 28.6331C12.9636 27.4415 14.1948 26.3241 13.9491 24.9759C13.1094 24.8391 12.6382 25.1136 11.6734 25.15C9.2961 24.5903 12.5464 24.2338 13.1922 23.7357C14.6961 23.305 16.4322 22.7696 17.3804 21.4781C18.7767 20.6158 17.9572 19.2744 16.8566 18.5994ZM42.1902 22.4658C42.4179 22.5715 42.6177 24.1546 42.1551 24.799C41.6795 25.5938 41.4342 23.692 41.922 23.4634C41.9774 22.6741 42.0867 22.4177 42.1902 22.4658ZM42.6681 27.8419C42.7122 27.8338 42.7711 27.9265 42.8589 28.1718C42.8688 28.1574 42.8755 28.1538 42.8854 28.1403C42.7372 28.6841 42.5671 29.2217 42.3756 29.7517C42.0979 29.9574 41.8414 30.0582 41.9521 29.4786C42.5812 29.8112 42.4777 27.8779 42.6681 27.8419ZM13.3763 35.4946C13.2079 35.5149 13.0207 35.667 12.8241 35.9991C11.0547 36.1602 11.7508 38.2041 12.5262 39.1797C13.0977 39.9807 14.0643 39.6418 13.8919 38.6208C14.4918 37.7869 14.1052 35.4073 13.3763 35.4946Z" fill="#4FCAFF"/>
</svg>
